<svg width="18" height="16" viewBox="0 0 18 16" fill="none" xmlns="http://www.w3.org/2000/svg">
<path d="M9.10337 1C9.93791 1 10.7328 1.32266 11.3147 1.88848C11.8956 2.45337 12.2166 3.2135 12.2166 4C12.2166 4.7865 11.8956 5.54663 11.3147 6.11152C10.7328 6.67734 9.93791 7 9.10337 7C8.26883 7 7.4739 6.67734 6.89206 6.11152C6.31118 5.54663 5.99016 4.7865 5.99016 4C5.99016 3.2135 6.31118 2.45337 6.89206 1.88848C7.4739 1.32266 8.26883 1 9.10337 1ZM9.10337 11C11.2583 11 13.159 11.4264 14.4837 12.0706C15.8762 12.7477 16.3298 13.4923 16.3298 14V15H1.87695V14C1.87695 13.4923 2.33053 12.7477 3.72304 12.0706C5.04777 11.4264 6.94848 11 9.10337 11Z" stroke="white" stroke-width="2"/>
</svg>
